<svg width="30" height="30" viewBox="0 0 30 30" fill="none" xmlns="http://www.w3.org/2000/svg">
<g id="account_circle">
<path id="Vector" d="M15.0078 2.49902C8.10781 2.49902 2.50781 8.09902 2.50781 14.999C2.50781 21.899 8.10781 27.499 15.0078 27.499C21.9078 27.499 27.5078 21.899 27.5078 14.999C27.5078 8.09902 21.9078 2.49902 15.0078 2.49902ZM15.0078 7.49902C17.4203 7.49902 19.3828 9.46152 19.3828 11.874C19.3828 14.2865 17.4203 16.249 15.0078 16.249C12.5953 16.249 10.6328 14.2865 10.6328 11.874C10.6328 9.46152 12.5953 7.49902 15.0078 7.49902ZM15.0078 24.999C12.4703 24.999 9.47031 23.974 7.33281 21.399C9.44531 19.749 12.1078 18.749 15.0078 18.749C17.9078 18.749 20.5703 19.749 22.6828 21.399C20.5453 23.974 17.5453 24.999 15.0078 24.999Z" fill="#16A34A"/>
</g>
</svg>
