<svg width="17" height="17" viewBox="0 0 17 17" fill="none" xmlns="http://www.w3.org/2000/svg">
<g id="logos:apple" clip-path="url(#clip0_8933_8385)">
<path id="Vector" d="M13.4314 9.47096C13.4539 11.8923 15.5555 12.6981 15.5788 12.7084C15.561 12.7652 15.243 13.8566 14.4716 14.984C13.8047 15.9587 13.1125 16.9298 12.0222 16.9499C10.951 16.9696 10.6064 16.3146 9.38159 16.3146C8.15711 16.3146 7.77436 16.9298 6.76021 16.9696C5.70779 17.0095 4.90637 15.9157 4.234 14.9446C2.85996 12.9581 1.80993 9.33132 3.21985 6.88318C3.92026 5.6674 5.17202 4.89758 6.53059 4.87783C7.56403 4.85814 8.5395 5.5731 9.17126 5.5731C9.80261 5.5731 10.988 4.7133 12.2342 4.83956C12.7558 4.86129 14.2202 5.05025 15.1605 6.42664C15.0847 6.47361 13.4132 7.44669 13.4314 9.47101M11.418 3.52536C11.9768 2.84903 12.3528 1.90755 12.2502 0.970703C11.4448 1.00307 10.471 1.5074 9.89324 2.18332C9.37553 2.78195 8.92215 3.74002 9.04449 4.65829C9.9422 4.72775 10.8592 4.20211 11.418 3.52536" fill="#495057"/>
</g>
<defs>
<clipPath id="clip0_8933_8385">
<rect width="16" height="16" fill="white" transform="translate(0.949219 0.970703)"/>
</clipPath>
</defs>
</svg>
