<svg width="16" height="16" viewBox="0 0 16 16" fill="none" xmlns="http://www.w3.org/2000/svg">
<g id="auto_fix_normal">
<g id="Vector">
<path d="M13.0017 5L13.6283 3.62667L15.0017 3L13.6283 2.37333L13.0017 1L12.375 2.37333L11.0017 3L12.375 3.62667L13.0017 5Z" fill="#F0FDF4"/>
<path d="M11.475 6.41333L9.58833 4.52667C9.455 4.4 9.28833 4.33333 9.115 4.33333C8.94167 4.33333 8.775 4.4 8.64167 4.52667L1.195 11.9733C0.935 12.2333 0.935 12.6533 1.195 12.9133L3.08167 14.8C3.215 14.9333 3.38167 15 3.555 15C3.72833 15 3.895 14.9333 4.02833 14.8067L11.475 7.36C11.735 7.1 11.735 6.67333 11.475 6.41333ZM9.115 5.94667L10.055 6.88667L9.275 7.66667L8.335 6.72667L9.115 5.94667ZM3.555 13.3933L2.615 12.4533L7.395 7.66667L8.335 8.60667L3.555 13.3933Z" fill="#F0FDF4"/>
</g>
</g>
</svg>
