<svg width="16" height="16" viewBox="0 0 16 16" fill="none" xmlns="http://www.w3.org/2000/svg">
<g id="emojione:flag-for-bangladesh">
<path id="Vector" d="M8.00391 15.5C12.146 15.5 15.5039 12.1421 15.5039 8C15.5039 3.85786 12.146 0.5 8.00391 0.5C3.86177 0.5 0.503906 3.85786 0.503906 8C0.503906 12.1421 3.86177 15.5 8.00391 15.5Z" fill="#F0FDF4"/>
<path id="Vector_2" d="M8.00391 15.5C12.146 15.5 15.5039 12.1421 15.5039 8C15.5039 3.85786 12.146 0.5 8.00391 0.5C3.86177 0.5 0.503906 3.85786 0.503906 8C0.503906 12.1421 3.86177 15.5 8.00391 15.5Z" fill="#699635"/>
<path id="Vector_3" d="M6.50547 11.5246C8.45227 11.5246 10.0305 9.94641 10.0305 7.99961C10.0305 6.05281 8.45227 4.47461 6.50547 4.47461C4.55867 4.47461 2.98047 6.05281 2.98047 7.99961C2.98047 9.94641 4.55867 11.5246 6.50547 11.5246Z" fill="#ED4C5C"/>
</g>
</svg>
