<svg width="17" height="17" viewBox="0 0 17 17" fill="none" xmlns="http://www.w3.org/2000/svg">
<g id="logos:facebook" clip-path="url(#clip0_8933_8374)">
<path id="Vector" d="M16.4492 8.9707C16.4492 4.55245 12.8675 0.970703 8.44922 0.970703C4.03097 0.970703 0.449219 4.55239 0.449219 8.9707C0.449219 12.9637 3.37472 16.2734 7.19922 16.8735V11.2832H5.16797V8.9707H7.19922V7.2082C7.19922 5.2032 8.39359 4.0957 10.2209 4.0957C11.0962 4.0957 12.0117 4.25195 12.0117 4.25195V6.2207H11.003C10.0091 6.2207 9.69922 6.83739 9.69922 7.47008V8.9707H11.918L11.5633 11.2832H9.69922V16.8735C13.5237 16.2734 16.4492 12.9638 16.4492 8.9707Z" fill="#1877F2"/>
<path id="Vector_2" d="M11.5633 11.2832L11.918 8.9707H9.69922V7.47008C9.69922 6.83733 10.0092 6.2207 11.003 6.2207H12.0117V4.25195C12.0117 4.25195 11.0962 4.0957 10.2209 4.0957C8.39359 4.0957 7.19922 5.2032 7.19922 7.2082V8.9707H5.16797V11.2832H7.19922V16.8735C7.61273 16.9383 8.03066 16.9708 8.44922 16.9707C8.86778 16.9708 9.28571 16.9383 9.69922 16.8735V11.2832H11.5633Z" fill="white"/>
</g>
<defs>
<clipPath id="clip0_8933_8374">
<rect width="16" height="16" fill="white" transform="translate(0.449219 0.970703)"/>
</clipPath>
</defs>
</svg>
