<svg width="17" height="17" viewBox="0 0 17 17" fill="none" xmlns="http://www.w3.org/2000/svg">
<g id="Group">
<path id="Vector" d="M16.2811 9.15103C16.2811 8.62436 16.2344 8.12436 16.1544 7.6377H8.62109V10.6444H12.9344C12.7411 11.631 12.1744 12.4644 11.3344 13.031V15.031H13.9078C15.4144 13.6377 16.2811 11.5844 16.2811 9.15103Z" fill="#4285F4"/>
<path id="Vector_2" d="M8.62047 16.9704C10.7805 16.9704 12.5871 16.2504 13.9071 15.0304L11.3338 13.0304C10.6138 13.5104 9.70047 13.8037 8.62047 13.8037C6.5338 13.8037 4.76714 12.3971 4.1338 10.4971H1.48047V12.5571C2.7938 15.1704 5.4938 16.9704 8.62047 16.9704Z" fill="#20C997"/>
<path id="Vector_3" d="M4.13443 10.4971C3.96776 10.0171 3.88109 9.50379 3.88109 8.97045C3.88109 8.43712 3.97443 7.92379 4.13443 7.44379V5.38379H1.48109C0.934426 6.46379 0.621094 7.67712 0.621094 8.97045C0.621094 10.2638 0.934426 11.4771 1.48109 12.5571L4.13443 10.4971Z" fill="#FFC107"/>
<path id="Vector_4" d="M8.62047 4.13737C9.80047 4.13737 10.8538 4.54404 11.6871 5.33737L13.9671 3.05737C12.5871 1.76404 10.7805 0.970703 8.62047 0.970703C5.4938 0.970703 2.7938 2.7707 1.48047 5.38404L4.1338 7.44404C4.76714 5.54404 6.5338 4.13737 8.62047 4.13737Z" fill="#E35D6A"/>
</g>
</svg>
