<svg width="16" height="16" viewBox="0 0 16 16" fill="none" xmlns="http://www.w3.org/2000/svg">
<g id="grid_view">
<g id="Vector">
<path d="M3.32943 7.33236H5.99609C6.72943 7.33236 7.32943 6.73236 7.32943 5.99902V3.33236C7.32943 2.59902 6.72943 1.99902 5.99609 1.99902H3.32943C2.59609 1.99902 1.99609 2.59902 1.99609 3.33236V5.99902C1.99609 6.73236 2.59609 7.33236 3.32943 7.33236Z" fill="#DAF9E7"/>
<path d="M3.32943 13.999H5.99609C6.72943 13.999 7.32943 13.399 7.32943 12.6657V9.99902C7.32943 9.26569 6.72943 8.66569 5.99609 8.66569H3.32943C2.59609 8.66569 1.99609 9.26569 1.99609 9.99902V12.6657C1.99609 13.399 2.59609 13.999 3.32943 13.999Z" fill="#DAF9E7"/>
<path d="M8.66276 3.33236V5.99902C8.66276 6.73236 9.26276 7.33236 9.99609 7.33236H12.6628C13.3961 7.33236 13.9961 6.73236 13.9961 5.99902V3.33236C13.9961 2.59902 13.3961 1.99902 12.6628 1.99902H9.99609C9.26276 1.99902 8.66276 2.59902 8.66276 3.33236Z" fill="#DAF9E7"/>
<path d="M9.99609 13.999H12.6628C13.3961 13.999 13.9961 13.399 13.9961 12.6657V9.99902C13.9961 9.26569 13.3961 8.66569 12.6628 8.66569H9.99609C9.26276 8.66569 8.66276 9.26569 8.66276 9.99902V12.6657C8.66276 13.399 9.26276 13.999 9.99609 13.999Z" fill="#DAF9E7"/>
</g>
</g>
</svg>
