<svg width="40" height="40" viewBox="0 0 40 40" fill="none" xmlns="http://www.w3.org/2000/svg">
<g id="Group 1000003535">
<g id="Group 1000003532">
<path id="Rectangle 4426" d="M0 19.3324C0 8.65485 8.65583 -0.000976562 19.3333 -0.000976562C19.3333 10.6765 10.6775 19.3324 0 19.3324Z" fill="#22C55E"/>
<path id="Rectangle 4427" d="M20.668 -0.000976562H40.0013V19.3324C29.3238 19.3324 20.668 10.6765 20.668 -0.000976562Z" fill="#22C55E"/>
<path id="Rectangle 4428" d="M20.668 39.9993C20.668 29.3218 29.3238 20.666 40.0013 20.666C40.0013 31.3435 31.3455 39.9993 20.668 39.9993Z" fill="#22C55E"/>
<path id="Rectangle 4429" d="M0 20.666C10.6775 20.666 19.3333 29.3218 19.3333 39.9993C8.65583 39.9993 0 31.3435 0 20.666Z" fill="#22C55E"/>
</g>
<g id="Group 1000003533">
<path id="Rectangle 4426_2" d="M19.7748 8.90975C19.8992 8.78539 20.1008 8.78539 20.2252 8.90975C23.0233 11.7079 23.0233 16.2446 20.2252 19.0428C20.1008 19.1671 19.8992 19.1671 19.7748 19.0428C16.9767 16.2446 16.9767 11.7079 19.7748 8.90975Z" fill="#16A34A"/>
<path id="Rectangle 4427_2" d="M20.9569 19.7735C23.7551 16.9754 28.2918 16.9754 31.0899 19.7735C31.2143 19.8979 31.2143 20.0995 31.0899 20.2239C28.2918 23.0221 23.7551 23.0221 20.9569 20.2239C20.8326 20.0995 20.8326 19.8979 20.9569 19.7735Z" fill="#16A34A"/>
<path id="Rectangle 4428_2" d="M19.7748 20.9537C19.8992 20.8293 20.1008 20.8293 20.2252 20.9537C23.0233 23.7519 23.0233 28.2886 20.2252 31.0867C20.1008 31.2111 19.8992 31.2111 19.7748 31.0867C16.9767 28.2886 16.9767 23.7519 19.7748 20.9537Z" fill="#16A34A"/>
<path id="Rectangle 4429_2" d="M8.91005 19.7735C11.7082 16.9754 16.2449 16.9754 19.0431 19.7735C19.1674 19.8979 19.1674 20.0995 19.0431 20.2239C16.2449 23.0221 11.7082 23.0221 8.91005 20.2239C8.78569 20.0995 8.78569 19.8979 8.91005 19.7735Z" fill="#16A34A"/>
</g>
</g>
</svg>
