<svg width="16" height="16" viewBox="0 0 16 16" fill="none" xmlns="http://www.w3.org/2000/svg">
<g id="help_outline">
<path id="Vector" d="M7.33984 11.9997H8.67318V10.6663H7.33984V11.9997ZM8.00651 1.33301C4.32651 1.33301 1.33984 4.31967 1.33984 7.99967C1.33984 11.6797 4.32651 14.6663 8.00651 14.6663C11.6865 14.6663 14.6732 11.6797 14.6732 7.99967C14.6732 4.31967 11.6865 1.33301 8.00651 1.33301ZM8.00651 13.333C5.06651 13.333 2.67318 10.9397 2.67318 7.99967C2.67318 5.05967 5.06651 2.66634 8.00651 2.66634C10.9465 2.66634 13.3398 5.05967 13.3398 7.99967C13.3398 10.9397 10.9465 13.333 8.00651 13.333ZM8.00651 3.99967C6.53318 3.99967 5.33984 5.19301 5.33984 6.66634H6.67318C6.67318 5.93301 7.27318 5.33301 8.00651 5.33301C8.73984 5.33301 9.33984 5.93301 9.33984 6.66634C9.33984 7.99967 7.33984 7.83301 7.33984 9.99967H8.67318C8.67318 8.49967 10.6732 8.33301 10.6732 6.66634C10.6732 5.19301 9.47984 3.99967 8.00651 3.99967Z" fill="#F0FDF4"/>
</g>
</svg>
