<svg width="19" height="19" viewBox="0 0 19 19" fill="none" xmlns="http://www.w3.org/2000/svg">
<g id="visibility_off" clip-path="url(#clip0_8933_8838)">
<path id="Vector" d="M9.94922 5.45547C12.7917 5.45547 15.3267 7.05297 16.5642 9.58047C16.1217 10.4955 15.4992 11.283 14.7567 11.9205L15.8142 12.978C16.8567 12.0555 17.6817 10.9005 18.1992 9.58047C16.9017 6.28797 13.6992 3.95547 9.94922 3.95547C8.99672 3.95547 8.08172 4.10547 7.21922 4.38297L8.45672 5.62047C8.94422 5.52297 9.43922 5.45547 9.94922 5.45547ZM9.14672 6.31047L10.6992 7.86297C11.1267 8.05047 11.4717 8.39547 11.6592 8.82297L13.2117 10.3755C13.2717 10.1205 13.3167 9.85047 13.3167 9.57297C13.3242 7.71297 11.8092 6.20547 9.94922 6.20547C9.67172 6.20547 9.40922 6.24297 9.14672 6.31047ZM2.45672 3.85797L4.46672 5.86797C3.24422 6.82797 2.27672 8.10297 1.69922 9.58047C2.99672 12.873 6.19922 15.2055 9.94922 15.2055C11.0892 15.2055 12.1842 14.988 13.1892 14.5905L15.7542 17.1555L16.8117 16.098L3.51422 2.79297L2.45672 3.85797ZM8.08172 9.48297L10.0392 11.4405C10.0092 11.448 9.97922 11.4555 9.94922 11.4555C8.91422 11.4555 8.07422 10.6155 8.07422 9.58047C8.07422 9.54297 8.08172 9.52047 8.08172 9.48297ZM5.53172 6.93297L6.84422 8.24547C6.67172 8.65797 6.57422 9.10797 6.57422 9.58047C6.57422 11.4405 8.08922 12.9555 9.94922 12.9555C10.4217 12.9555 10.8717 12.858 11.2767 12.6855L12.0117 13.4205C11.3517 13.6005 10.6617 13.7055 9.94922 13.7055C7.10672 13.7055 4.57172 12.108 3.33422 9.58047C3.85922 8.50797 4.62422 7.62297 5.53172 6.93297Z" fill="#0A0A0A"/>
</g>
<defs>
<clipPath id="clip0_8933_8838">
<rect width="18" height="18" fill="white" transform="translate(0.949219 0.974609)"/>
</clipPath>
</defs>
</svg>
