<svg width="20" height="20" viewBox="0 0 20 20" fill="none" xmlns="http://www.w3.org/2000/svg">
<g id="ic:baseline-whatsapp">
<path id="Vector" d="M15.8776 4.09204C15.1136 3.32031 14.2036 2.70843 13.2006 2.29208C12.1977 1.87574 11.1219 1.66326 10.0359 1.66704C5.48594 1.66704 1.7776 5.37537 1.7776 9.92537C1.7776 11.3837 2.16094 12.8004 2.8776 14.0504L1.71094 18.3337L6.08594 17.1837C7.29427 17.842 8.6526 18.192 10.0359 18.192C14.5859 18.192 18.2943 14.4837 18.2943 9.93371C18.2943 7.72537 17.4359 5.65037 15.8776 4.09204ZM10.0359 16.792C8.8026 16.792 7.59427 16.4587 6.53594 15.8337L6.28594 15.6837L3.68594 16.367L4.3776 13.8337L4.21094 13.5754C3.52573 12.4812 3.16189 11.2164 3.16094 9.92537C3.16094 6.14204 6.24427 3.05871 10.0276 3.05871C11.8609 3.05871 13.5859 3.77538 14.8776 5.07538C15.5172 5.71201 16.024 6.46926 16.3688 7.30323C16.7135 8.1372 16.8893 9.0313 16.8859 9.93371C16.9026 13.717 13.8193 16.792 10.0359 16.792ZM13.8026 11.6587C13.5943 11.5587 12.5776 11.0587 12.3943 10.9837C12.2026 10.917 12.0693 10.8837 11.9276 11.0837C11.7859 11.292 11.3943 11.7587 11.2776 11.892C11.1609 12.0337 11.0359 12.0504 10.8276 11.942C10.6193 11.842 9.9526 11.617 9.16927 10.917C8.5526 10.367 8.14427 9.69204 8.01927 9.48371C7.9026 9.27537 8.0026 9.16704 8.11094 9.05871C8.2026 8.96704 8.31927 8.81704 8.41927 8.70037C8.51927 8.58371 8.56094 8.49204 8.6276 8.35871C8.69427 8.21704 8.66094 8.10038 8.61094 8.00038C8.56094 7.90038 8.14427 6.88371 7.9776 6.46704C7.81094 6.06704 7.63594 6.11704 7.51094 6.10871H7.11094C6.96927 6.10871 6.7526 6.15871 6.56094 6.36704C6.3776 6.57538 5.84427 7.07538 5.84427 8.09204C5.84427 9.10871 6.58594 10.092 6.68594 10.2254C6.78594 10.367 8.14427 12.4504 10.2109 13.342C10.7026 13.5587 11.0859 13.6837 11.3859 13.7754C11.8776 13.9337 12.3276 13.9087 12.6859 13.8587C13.0859 13.8004 13.9109 13.3587 14.0776 12.8754C14.2526 12.392 14.2526 11.9837 14.1943 11.892C14.1359 11.8004 14.0109 11.7587 13.8026 11.6587Z" fill="black"/>
</g>
</svg>
