<svg width="40" height="40" viewBox="0 0 40 40" fill="none" xmlns="http://www.w3.org/2000/svg">
<g id="world">
<path id="Vector" d="M33.3789 22.258C33.3789 29.8768 27.1969 36.0533 19.5703 36.0533C17.2242 36.0533 15.0148 35.4689 13.0797 34.4377C12.3699 34.0596 11.6946 33.6199 11.0617 33.1236C7.83516 30.5986 5.76172 26.6697 5.76172 22.258C5.76172 21.2986 5.85937 20.3627 6.04609 19.458C6.42187 17.6377 7.15625 15.9494 8.17266 14.4682C8.95361 13.33 9.89996 12.3146 10.9805 11.4557C13.3375 9.58144 16.3234 8.46191 19.5703 8.46191C21.3336 8.46191 23.0203 8.79238 24.5703 9.39395C29.725 11.3955 33.3789 16.4002 33.3789 22.258Z" fill="#F0FDF4"/>
<path id="Vector_2" d="M14.4977 29.9373C13.1727 31.2107 13.1312 34.2021 13.0687 34.4388C12.3589 34.0607 11.6837 33.621 11.0508 33.1248C10.6266 31.8959 9.40937 28.3787 9.06797 27.942C8.9 27.7263 7.56719 26.6599 7.80234 24.2678C7.83508 23.9348 7.87969 22.8709 7.18203 22.4998C6.20313 21.9791 6.06953 20.5685 6.03516 19.4592C6.69922 16.2396 8.48672 13.4303 10.9695 11.4568C11.8094 11.2271 12.6547 11.117 13.0641 11.417C13.3609 11.6349 13.4172 12.0756 13.2945 12.4224C13.2062 12.6709 13.0469 12.8842 12.8687 13.0818C12.7992 13.1607 10.1305 15.9357 9.67891 16.2818C9.25625 16.6053 8.16016 17.3435 8.0625 17.4287C7.31094 18.081 6.73125 18.9678 6.70313 19.9537C6.67109 21.0654 7.55547 22.2224 8.66875 22.1982C8.89219 22.1928 9.91359 22.4495 10.2219 22.5521C11.8836 23.1053 12.4836 25.0662 12.6633 25.2888C13.1266 25.8615 14.0195 25.7638 14.693 26.0638C15.3922 26.3763 16.5386 27.9758 14.4977 29.9373ZM33.2334 20.3153C33.0471 20.3115 31.6883 20.3318 31.9413 21.4049C32.0019 21.6615 32.7625 22.1092 32.5109 23.2854C32.2617 24.4506 30.8037 30.8747 29.1088 31.9C28.712 32.1398 26.7273 33.0467 25.8061 30.6577C25.4802 29.8124 25.5177 26.4749 25.5275 25.7249C25.5383 24.9581 25.2027 23.561 23.7128 23.678C18.8172 24.0623 18.5759 19.8504 19.2157 18.5113C19.8555 17.1718 21.5711 15.5662 23.8294 15.6113C24.8309 15.6313 25.6484 16.3824 26.5193 16.8775C28.3248 17.9034 30.511 17.9741 32.438 17.2813C32.8185 18.2588 33.0854 19.2768 33.2334 20.3153Z" fill="#22C55E"/>
<path id="Vector_3" opacity="0.1" d="M24.5656 9.39395C23.9758 10.1807 23.3805 10.8807 22.782 11.501C19.4266 14.9846 15.9812 15.9729 12.875 15.7369C11.8164 15.6572 8.70078 14.7119 8.16797 14.4682C8.94892 13.33 9.89527 12.3146 10.9758 11.4557C13.3328 9.58144 16.3187 8.46191 19.5656 8.46191C21.3289 8.46191 23.0156 8.79238 24.5656 9.39395Z" fill="black"/>
<path id="Vector_4" d="M28.8736 7.8693C28.7649 7.83352 28.2628 7.63579 28.3549 7.12461C29.6546 -0.0831983 35.9241 1.14196 37.8824 1.72594C38.2278 1.82899 38.4261 2.18891 38.3311 2.53633C36.3671 9.7204 30.6478 8.45493 28.8736 7.8693ZM24.5858 6.7061C24.0793 7.56602 23.3842 8.21625 22.778 8.84516C19.4225 12.3288 15.9772 13.317 12.871 13.0811C11.8124 13.0014 10.7928 12.7795 9.83034 12.4655C6.56315 11.3998 3.94362 9.27797 2.63503 8.06625C2.10065 7.57172 2.06237 6.74204 2.5444 6.19672C12.5147 -5.07828 21.7279 2.34688 24.4514 4.96235C24.8253 5.32133 24.9815 6.03422 24.5858 6.7061Z" fill="#16A34A"/>
<path id="Vector_5" d="M29.7002 7.87893L31.4108 6.55737C31.4108 6.55737 32.8433 6.7801 32.8573 6.7801C32.926 6.7799 32.9922 6.75382 33.0426 6.70703C33.093 6.66024 33.1239 6.59619 33.1292 6.52763C33.1345 6.45907 33.1138 6.39103 33.0711 6.33707C33.0285 6.2831 32.9671 6.24717 32.8992 6.23643L32.0067 6.09698L33.1855 5.18619C33.1855 5.18619 35.3652 5.66315 35.3846 5.66315C35.4519 5.66287 35.5167 5.63782 35.5667 5.59277C35.6166 5.54773 35.6483 5.48585 35.6555 5.41896C35.6627 5.35207 35.6451 5.28486 35.6059 5.23018C35.5667 5.17549 35.5087 5.13717 35.443 5.12252L33.7498 4.75018L35.4733 3.41854C35.5307 3.37419 35.5681 3.30886 35.5773 3.23692C35.5865 3.16498 35.5668 3.09233 35.5224 3.03494C35.4781 2.97756 35.4127 2.94014 35.3408 2.93093C35.2689 2.92171 35.1962 2.94145 35.1388 2.9858L31.983 5.42416L32.4438 3.82479C32.4639 3.7551 32.4555 3.68028 32.4204 3.61679C32.3853 3.55331 32.3265 3.50636 32.2568 3.48627C32.1871 3.46618 32.1123 3.4746 32.0488 3.50968C31.9853 3.54475 31.9384 3.60361 31.9183 3.6733L31.2542 5.97799C31.2532 5.98151 31.2531 5.9851 31.2523 5.98862C31.2523 5.98862 29.2832 7.53166 29.2666 7.58143C25.4916 4.94041 21.3893 4.66619 19.5561 4.66619C19.5202 4.66619 19.4846 4.67327 19.4515 4.68701C19.4183 4.70075 19.3881 4.72089 19.3627 4.74628C19.3374 4.77167 19.3172 4.80182 19.3035 4.83499C19.2897 4.86817 19.2827 4.90372 19.2827 4.93963C19.2827 4.97554 19.2897 5.0111 19.3035 5.04427C19.3172 5.07745 19.3374 5.10759 19.3627 5.13298C19.3881 5.15837 19.4183 5.17851 19.4515 5.19226C19.4846 5.206 19.5202 5.21307 19.5561 5.21307C20.8337 5.21258 22.1073 5.35497 23.3533 5.6376L19.4041 6.07682C19.3975 6.06987 16.7683 3.84065 16.7683 3.84065C16.7409 3.81744 16.7092 3.79986 16.675 3.7889C16.6408 3.77795 16.6048 3.77384 16.569 3.77681C16.5332 3.77977 16.4983 3.78976 16.4664 3.8062C16.4345 3.82263 16.4061 3.8452 16.3829 3.8726C16.3597 3.9 16.3421 3.93171 16.3311 3.96591C16.3202 4.00011 16.3161 4.03613 16.319 4.07191C16.322 4.1077 16.332 4.14255 16.3484 4.17448C16.3649 4.20641 16.3874 4.23478 16.4148 4.25799L18.6602 6.15963L14.2416 6.65104L11.5681 4.32416C11.541 4.30059 11.5096 4.28258 11.4755 4.27116C11.4415 4.25974 11.4055 4.25514 11.3697 4.25762C11.3339 4.26011 11.2989 4.26962 11.2667 4.28562C11.2346 4.30162 11.2059 4.3238 11.1823 4.35088C11.1588 4.37797 11.1408 4.40943 11.1293 4.44348C11.1179 4.47752 11.1133 4.51348 11.1158 4.54931C11.1183 4.58513 11.1278 4.62011 11.1438 4.65226C11.1598 4.68441 11.182 4.71309 11.2091 4.73666L13.5029 6.73315L8.91844 7.24307C8.84893 7.25072 8.785 7.2847 8.73978 7.33803C8.69456 7.39136 8.67149 7.45999 8.67532 7.52981C8.67914 7.59963 8.70956 7.66533 8.76033 7.71341C8.8111 7.76148 8.87836 7.78829 8.94828 7.7883C8.95836 7.7883 10.6796 7.59744 10.6796 7.59744L9.40273 9.17135C9.30758 9.28862 9.32641 9.45979 9.44281 9.55596C9.61266 9.69619 9.74445 9.60346 9.82742 9.51588L11.4536 7.51127L16.0561 6.9994L14.2316 9.50541C14.1427 9.62752 14.1588 9.8158 14.2918 9.88744C14.4807 9.98924 14.6203 9.9008 14.6738 9.82729L16.7922 6.91752C16.7922 6.91752 24.7686 6.02854 24.7778 6.02651C33.0923 8.87916 36.6317 16.7021 36.6317 22.2888C36.6317 31.7042 28.972 39.3641 19.5567 39.3646L19.5561 39.3645C10.1405 39.3645 2.48047 31.7044 2.48047 22.2889C2.48047 22.2163 2.45166 22.1468 2.40038 22.0955C2.3491 22.0442 2.27955 22.0154 2.20703 22.0154C2.13451 22.0154 2.06496 22.0442 2.01368 22.0955C1.9624 22.1468 1.93359 22.2163 1.93359 22.2889C1.93359 26.996 3.76664 31.4214 7.09508 34.7499C10.4233 38.0781 14.8483 39.9111 19.5551 39.9114L19.5559 39.9114C24.2633 39.9114 28.6887 38.0784 32.0172 34.75C35.3456 31.4216 37.1786 26.9961 37.1786 22.2889C37.1787 16.5596 34.3845 11.1817 29.7002 7.87893Z" fill="#F0FDF4"/>
</g>
</svg>
